<?xml version="1.0" encoding="UTF-8" standalone="no" ?>
<!DOCTYPE svg PUBLIC "-//W3C//DTD SVG 1.1//EN" "http://www.w3.org/Graphics/SVG/1.1/DTD/svg11.dtd">
<svg xmlns="http://www.w3.org/2000/svg" xmlns:xlink="http://www.w3.org/1999/xlink" version="1.1" width="21" height="24" viewBox="0 0 21 24" xml:space="preserve">
<desc>Created with Fabric.js 3.6.3</desc>
<defs>
</defs>
<g transform="matrix(1 0 0 1 10.61 12.5)"  >
<radialGradient id="SVGID_44" gradientUnits="userSpaceOnUse" gradientTransform="matrix(1 0 0 1 1.89 0)"  cx="10.1105" cy="12" r="10.1105" fx="10.1105" fy="12">
<stop offset="0%" style="stop-color:rgba(230, 128, 14, 1);"/>
<stop offset="100%" style="stop-color:rgba(255, 0, 0, 1);"/>
</radialGradient>
<path style="stroke: none; stroke-width: 1; stroke-dasharray: none; stroke-linecap: butt; stroke-dashoffset: 0; stroke-linejoin: miter; stroke-miterlimit: 4; fill: url(#SVGID_44); fill-rule: nonzero; opacity: 1;"  transform=" translate(-12, -12)" d="M 15.725 0 l -1.72 1.277 l 6.39 8.588 l 1.716 -1.277 L 15.725 0 z m -3.94 3.418 l -1.369 1.644 l 8.225 6.85 l 1.369 -1.644 l -8.225 -6.85 z m -3.15 4.465 l -0.905 1.94 l 9.702 4.517 l 0.904 -1.94 l -9.701 -4.517 z m -1.85 4.86 l -0.44 2.093 l 10.473 2.201 l 0.44 -2.092 l -10.473 -2.203 z M 1.89 15.47 V 24 h 19.19 v -8.53 h -2.133 v 6.397 H 4.021 v -6.396 H 1.89 z m 4.265 2.133 v 2.13 h 10.66 v -2.13 H 6.154 Z" stroke-linecap="round" />
</g>
</svg>